<svg width="350" height="50" viewBox="0 0 350 50" fill="none" xmlns="http://www.w3.org/2000/svg">
<rect width="350" height="50" rx="25" fill="url(#paint0_linear_696_2502)"/>
<path d="M112.249 25C112.249 23.6267 112.555 22.4 113.169 21.32C113.795 20.2267 114.642 19.38 115.709 18.78C116.789 18.1667 117.995 17.86 119.329 17.86C120.889 17.86 122.255 18.26 123.429 19.06C124.602 19.86 125.422 20.9667 125.889 22.38H122.669C122.349 21.7133 121.895 21.2133 121.309 20.88C120.735 20.5467 120.069 20.38 119.309 20.38C118.495 20.38 117.769 20.5733 117.129 20.96C116.502 21.3333 116.009 21.8667 115.649 22.56C115.302 23.2533 115.129 24.0667 115.129 25C115.129 25.92 115.302 26.7333 115.649 27.44C116.009 28.1333 116.502 28.6733 117.129 29.06C117.769 29.4333 118.495 29.62 119.309 29.62C120.069 29.62 120.735 29.4533 121.309 29.12C121.895 28.7733 122.349 28.2667 122.669 27.6H125.889C125.422 29.0267 124.602 30.14 123.429 30.94C122.269 31.7267 120.902 32.12 119.329 32.12C117.995 32.12 116.789 31.82 115.709 31.22C114.642 30.6067 113.795 29.76 113.169 28.68C112.555 27.6 112.249 26.3733 112.249 25ZM141.36 18.04V32H138.56V26.06H132.58V32H129.78V18.04H132.58V23.78H138.56V18.04H141.36ZM148.416 20.3V23.8H153.116V26.02H148.416V29.72H153.716V32H145.616V18.02H153.716V20.3H148.416ZM157.081 25C157.081 23.6267 157.388 22.4 158.001 21.32C158.628 20.2267 159.474 19.38 160.541 18.78C161.621 18.1667 162.828 17.86 164.161 17.86C165.721 17.86 167.088 18.26 168.261 19.06C169.434 19.86 170.254 20.9667 170.721 22.38H167.501C167.181 21.7133 166.728 21.2133 166.141 20.88C165.568 20.5467 164.901 20.38 164.141 20.38C163.328 20.38 162.601 20.5733 161.961 20.96C161.334 21.3333 160.841 21.8667 160.481 22.56C160.134 23.2533 159.961 24.0667 159.961 25C159.961 25.92 160.134 26.7333 160.481 27.44C160.841 28.1333 161.334 28.6733 161.961 29.06C162.601 29.4333 163.328 29.62 164.141 29.62C164.901 29.62 165.568 29.4533 166.141 29.12C166.728 28.7733 167.181 28.2667 167.501 27.6H170.721C170.254 29.0267 169.434 30.14 168.261 30.94C167.101 31.7267 165.734 32.12 164.161 32.12C162.828 32.12 161.621 31.82 160.541 31.22C159.474 30.6067 158.628 29.76 158.001 28.68C157.388 27.6 157.081 26.3733 157.081 25ZM182.492 32L177.412 25.78V32H174.612V18.04H177.412V24.3L182.492 18.04H185.872L180.112 24.96L186.032 32H182.492ZM202.12 32.14C200.813 32.14 199.613 31.8333 198.52 31.22C197.426 30.6067 196.56 29.76 195.92 28.68C195.28 27.5867 194.96 26.3533 194.96 24.98C194.96 23.62 195.28 22.4 195.92 21.32C196.56 20.2267 197.426 19.3733 198.52 18.76C199.613 18.1467 200.813 17.84 202.12 17.84C203.44 17.84 204.64 18.1467 205.72 18.76C206.813 19.3733 207.673 20.2267 208.3 21.32C208.94 22.4 209.26 23.62 209.26 24.98C209.26 26.3533 208.94 27.5867 208.3 28.68C207.673 29.76 206.813 30.6067 205.72 31.22C204.626 31.8333 203.426 32.14 202.12 32.14ZM202.12 29.64C202.96 29.64 203.7 29.4533 204.34 29.08C204.98 28.6933 205.48 28.1467 205.84 27.44C206.2 26.7333 206.38 25.9133 206.38 24.98C206.38 24.0467 206.2 23.2333 205.84 22.54C205.48 21.8333 204.98 21.2933 204.34 20.92C203.7 20.5467 202.96 20.36 202.12 20.36C201.28 20.36 200.533 20.5467 199.88 20.92C199.24 21.2933 198.74 21.8333 198.38 22.54C198.02 23.2333 197.84 24.0467 197.84 24.98C197.84 25.9133 198.02 26.7333 198.38 27.44C198.74 28.1467 199.24 28.6933 199.88 29.08C200.533 29.4533 201.28 29.64 202.12 29.64ZM215.603 18.04V26.68C215.603 27.6267 215.85 28.3533 216.343 28.86C216.836 29.3533 217.53 29.6 218.423 29.6C219.33 29.6 220.03 29.3533 220.523 28.86C221.016 28.3533 221.263 27.6267 221.263 26.68V18.04H224.083V26.66C224.083 27.8467 223.823 28.8533 223.303 29.68C222.796 30.4933 222.11 31.1067 221.243 31.52C220.39 31.9333 219.436 32.14 218.383 32.14C217.343 32.14 216.396 31.9333 215.543 31.52C214.703 31.1067 214.036 30.4933 213.543 29.68C213.05 28.8533 212.803 27.8467 212.803 26.66V18.04H215.603ZM237.788 18.04V20.3H234.068V32H231.268V20.3H227.548V18.04H237.788Z" fill="white"/>
<defs>
<linearGradient id="paint0_linear_696_2502" x1="0" y1="0" x2="249.108" y2="185.493" gradientUnits="userSpaceOnUse">
<stop stop-color="#84E9FF"/>
<stop offset="1" stop-color="#C284FF"/>
</linearGradient>
</defs>
</svg>
